# xmcd
#
# Track frame offsets: 
#        150
#        23700
#        45325
#        62550
#        79850
#
# Disc length: 1266 seconds
#
# Revision: 3
# Processed by: cddbd v1.5.1PL0 Copyright (c) Steve Scherf et al.
# Submitted via: ExactAudioCopy v0.90b4
#
DISCID=3004f005
DTITLE=United Rave Orchestra - Auferstanden aus Ruinen
DYEAR=1900
DGENRE=
TTITLE0=Auferstanden aus Ruinen (Hymn Dance Mix)
TTITLE1=Auferstanden aus Ruinen (Rave 200 Club Mix)
TTITLE2=Auferstanden aus Ruinen (Paradise Mix)
TTITLE3=Auferstanden aus Ruinen (Short Hymn Mix)
TTITLE4=Auferstanden aus Ruinen (Unit E)
EXTD=
EXTT0=
EXTT1=
EXTT2=
EXTT3=
EXTT4=
PLAYORDER=
